solid sample_holder_bottom (Meshed)
  facet normal 0.000000 1.000000 0.000000
    outer loop
      vertex -2.500000 2.500000 -16.389999
      vertex -2.500000 2.500000 -11.390000
      vertex 2.500000 2.500000 -11.390000
    endloop
  endfacet
  facet normal 0.000000 1.000000 -0.000000
    outer loop
      vertex 2.500000 2.500000 -16.389999
      vertex -2.500000 2.500000 -16.389999
      vertex 2.500000 2.500000 -11.390000
    endloop
  endfacet
  facet normal 1.000000 0.000000 -0.000000
    outer loop
      vertex 2.500000 2.500000 -16.389999
      vertex 2.500000 2.500000 -11.390000
      vertex 2.500000 -2.500000 -11.390000
    endloop
  endfacet
  facet normal 1.000000 0.000000 0.000000
    outer loop
      vertex 2.500000 -2.500000 -16.389999
      vertex 2.500000 2.500000 -16.389999
      vertex 2.500000 -2.500000 -11.390000
    endloop
  endfacet
  facet normal 0.000000 -1.000000 0.000000
    outer loop
      vertex 2.500000 -2.500000 -16.389999
      vertex 2.500000 -2.500000 -11.390000
      vertex -2.500000 -2.500000 -11.390000
    endloop
  endfacet
  facet normal 0.000000 -1.000000 0.000000
    outer loop
      vertex -2.500000 -2.500000 -16.389999
      vertex 2.500000 -2.500000 -16.389999
      vertex -2.500000 -2.500000 -11.390000
    endloop
  endfacet
  facet normal -1.000000 0.000000 0.000000
    outer loop
      vertex -2.500000 -2.500000 -16.389999
      vertex -2.500000 -2.500000 -11.390000
      vertex -2.500000 2.500000 -11.390000
    endloop
  endfacet
  facet normal -1.000000 0.000000 0.000000
    outer loop
      vertex -2.500000 2.500000 -16.389999
      vertex -2.500000 -2.500000 -16.389999
      vertex -2.500000 2.500000 -11.390000
    endloop
  endfacet
  facet normal 0.000000 0.000000 1.000000
    outer loop
      vertex 2.500000 2.500000 -11.390000
      vertex -2.500000 -2.500000 -11.390000
      vertex 2.500000 -2.500000 -11.390000
    endloop
  endfacet
  facet normal 0.000000 0.000000 1.000000
    outer loop
      vertex 2.500000 2.500000 -11.390000
      vertex -2.500000 2.500000 -11.390000
      vertex -2.500000 -2.500000 -11.390000
    endloop
  endfacet
  facet normal 0.000000 0.000000 -1.000000
    outer loop
      vertex 2.500000 -2.500000 -16.389999
      vertex -2.500000 -2.500000 -16.389999
      vertex 2.500000 2.500000 -16.389999
    endloop
  endfacet
  facet normal 0.000000 0.000000 -1.000000
    outer loop
      vertex -2.500000 -2.500000 -16.389999
      vertex -2.500000 2.500000 -16.389999
      vertex 2.500000 2.500000 -16.389999
    endloop
  endfacet
endsolid Mesh
